<svg xmlns="http://www.w3.org/2000/svg" width="22" height="23" viewBox="0 0 22 23">
    <path fill="#5AEB5C" fill-rule="evenodd" d="M20.182 16.203l-.728 1.328a.707.707 0 0 1-.994.28l-2.02-1.23c-1.025 1.22-2.412 2.094-3.986 2.432V20.7c0 .424-.325.767-.727.767h-1.455c-.401 0-.726-.343-.726-.767v-1.687c-1.574-.338-2.96-1.212-3.986-2.432l-2.02 1.23a.707.707 0 0 1-.994-.28l-.728-1.328a.789.789 0 0 1 .266-1.047l2.029-1.236a7.998 7.998 0 0 1-.386-2.42c0-.848.145-1.658.386-2.42L2.084 7.845a.79.79 0 0 1-.266-1.048l.728-1.328a.708.708 0 0 1 .993-.28l2.02 1.23c1.026-1.22 2.413-2.094 3.987-2.432V2.3c0-.424.325-.767.726-.767h1.455c.402 0 .727.343.727.767v1.687c1.574.338 2.96 1.212 3.986 2.432l2.02-1.23a.708.708 0 0 1 .994.28l.728 1.328a.79.79 0 0 1-.267 1.048L17.887 9.08c.241.762.386 1.572.386 2.42 0 .848-.145 1.658-.386 2.42l2.028 1.236c.348.211.468.68.267 1.047zm1.09-1.992l-1.703-1.037c.096-.544.159-1.1.159-1.674 0-.573-.063-1.13-.159-1.674l1.704-1.037c.696-.423.933-1.362.532-2.094L20.35 4.039c-.4-.733-1.291-.985-1.986-.561l-1.722 1.046c-.803-.72-1.717-1.31-2.733-1.69v-1.3C13.91.686 13.258 0 12.454 0H9.546C8.742 0 8.09.687 8.09 1.533v1.301c-1.016.38-1.93.97-2.734 1.69l-1.72-1.046c-.696-.424-1.586-.172-1.987.56L.195 6.696c-.402.732-.163 1.67.532 2.094l1.704 1.037a9.673 9.673 0 0 0-.159 1.674c0 .574.063 1.13.159 1.674L.727 14.211c-.695.423-.934 1.362-.532 2.094l1.455 2.656c.4.733 1.291.985 1.986.561l1.721-1.046c.804.72 1.718 1.31 2.734 1.69v1.3c0 .847.65 1.534 1.455 1.534h2.908c.804 0 1.455-.687 1.455-1.533v-1.301c1.016-.38 1.93-.97 2.733-1.69l1.722 1.046c.695.424 1.585.172 1.986-.56l1.455-2.657c.401-.732.164-1.67-.532-2.094zM11 13.8c-1.205 0-2.182-1.03-2.182-2.3 0-1.27.977-2.3 2.182-2.3s2.182 1.03 2.182 2.3c0 1.27-.977 2.3-2.182 2.3zm0-6.133c-2.009 0-3.636 1.715-3.636 3.833 0 2.118 1.627 3.833 3.636 3.833 2.009 0 3.637-1.715 3.637-3.833 0-2.118-1.628-3.833-3.637-3.833z"/>
</svg>
