<svg xmlns="http://www.w3.org/2000/svg" width="36" height="36" viewBox="0 0 36 36">
    <g fill="none" fill-rule="evenodd">
        <path stroke="#5AEB5C" stroke-width="2" d="M18 33C9.716 33 3 26.284 3 18 3 9.716 9.716 3 18 3c8.284 0 15 6.716 15 15 0 8.284-6.716 15-15 15z"/>
        <path fill="#5AEB5C" d="M23.71 17.048h-4.758V12.29A.953.953 0 0 0 18 11.34a.953.953 0 0 0-.952.951v4.758H12.29a.953.953 0 0 0-.951.952c0 .523.426.952.951.952h4.758v4.758c0 .523.427.951.952.951a.953.953 0 0 0 .952-.951v-4.758h4.758A.953.953 0 0 0 24.66 18a.953.953 0 0 0-.951-.952z"/>
    </g>
</svg>
